<svg width="58" height="58" viewBox="0 0 58 58" fill="none" xmlns="http://www.w3.org/2000/svg">
<g clip-path="url(#clip0_1024_39178)">
<path fill-rule="evenodd" clip-rule="evenodd" d="M28.9998 0.0810547C44.74 0.0810547 57.5 12.8406 57.5 28.5806C57.5 44.321 44.74 57.0806 28.9998 57.0806C13.26 57.0811 0.5 44.321 0.5 28.5806C0.5 12.8406 13.26 0.0810547 28.9998 0.0810547ZM16.3205 31.4747L16.3136 31.4682C15.9494 31.1351 15.7537 30.6865 15.731 30.2301C15.7082 29.7746 15.8585 29.3093 16.1874 28.9419C16.192 28.9368 16.1962 28.9322 16.2008 28.9276C16.5334 28.5639 16.982 28.3677 17.4384 28.3449C17.8972 28.3222 18.3652 28.4748 18.7335 28.8079L24.7434 34.2574L39.1644 19.1543C39.5077 18.7944 39.9636 18.607 40.4257 18.5958C40.8858 18.5843 41.3506 18.7485 41.711 19.0908C42.0714 19.4336 42.2584 19.891 42.27 20.3521C42.2816 20.8127 42.1169 21.2784 41.7746 21.6384L26.1419 38.011C26.1312 38.0221 26.1196 38.0328 26.108 38.0421C25.7764 38.3738 25.3431 38.55 24.9029 38.5663C24.4511 38.5834 23.9924 38.4303 23.6301 38.1024L16.3261 31.4793L16.3205 31.4747Z" fill="#1E96E8"/>
</g>
<defs>
<clipPath id="clip0_1024_39178">
<rect width="57" height="57" fill="white" transform="translate(0.5 0.0810547)"/>
</clipPath>
</defs>
</svg>
