<svg width="21" height="18" viewBox="0 0 21 18" fill="none" xmlns="http://www.w3.org/2000/svg">
<path d="M3.69233 15.2481C3.85708 15.4467 3.83452 15.7455 3.64192 15.9154C3.44931 16.0854 3.15947 16.0622 2.99472 15.8636C1.001 13.4645 -0.02269 10.7505 0.000381488 8.00145C0.0227694 5.32059 1.04031 2.62018 3.12409 0.161524C3.29106 -0.0349501 3.58073 -0.055038 3.77146 0.116943C3.96201 0.2891 3.98149 0.587775 3.81452 0.784425C1.88165 3.06528 0.937767 5.55284 0.917259 8.00885C0.896238 10.5262 1.8449 13.0252 3.69233 15.2481ZM6.0974 12.9404C6.26523 13.1358 6.24762 13.4349 6.05793 13.6077C5.8684 13.7808 5.57855 13.7626 5.41073 13.5672C3.87793 11.781 3.09452 9.88848 3.1258 7.97132C3.15639 6.10402 3.95774 4.23814 5.59069 2.45102C5.76449 2.26053 6.05502 2.25137 6.23976 2.43058C6.42451 2.60978 6.43339 2.90934 6.25959 3.09982C4.79019 4.70809 4.06934 6.35864 4.04268 7.98612C4.01533 9.65923 4.71978 11.335 6.0974 12.9404ZM8.22818 10.7436C8.38797 10.9463 8.35824 11.2444 8.16153 11.4092C7.96483 11.5739 7.67584 11.5433 7.51604 11.3404C6.69026 10.292 6.26044 9.15615 6.2572 8.00286C6.25378 6.87617 6.6583 5.74949 7.49878 4.68818C7.65874 4.48553 7.94757 4.4547 8.1441 4.61945C8.34064 4.78421 8.37054 5.08236 8.21075 5.28482C7.50921 6.1708 7.17151 7.09414 7.17424 8.00268C7.17664 8.93289 7.53655 9.86557 8.22818 10.7436ZM18.0052 15.8636C17.8404 16.0622 17.5506 16.0854 17.358 15.9154C17.1654 15.7455 17.1428 15.4467 17.3076 15.2481C19.1552 13.0252 20.1037 10.5262 20.0827 8.00885C20.0621 5.55284 19.1183 3.06511 17.1854 0.784425C17.0184 0.587775 17.0379 0.288923 17.2285 0.116943C17.419 -0.055038 17.709 -0.0349501 17.8758 0.161524C19.9594 2.62018 20.9771 5.32059 20.9995 8.00145C21.0228 10.7505 19.9989 13.4645 18.0052 15.8636ZM15.5895 13.567C15.4217 13.7624 15.1319 13.7808 14.9423 13.6076C14.7526 13.4347 14.7349 13.1357 14.9028 12.9403C16.2805 11.335 16.9849 9.65923 16.9576 7.98594C16.9311 6.35847 16.2102 4.70774 14.7407 3.09964C14.5669 2.90916 14.5757 2.60961 14.7605 2.4304C14.9451 2.25119 15.2358 2.26036 15.4096 2.45084C17.0423 4.23814 17.8439 6.10384 17.8745 7.97114C17.9056 9.8883 17.1222 11.7808 15.5895 13.567ZM13.484 11.3404C13.3241 11.5431 13.0351 11.5739 12.8385 11.4092C12.642 11.2444 12.6123 10.9463 12.7721 10.7436C13.4635 9.86575 13.8233 8.93307 13.826 8.00286C13.8287 7.09432 13.491 6.17098 12.7895 5.285C12.6295 5.08253 12.6594 4.78439 12.8561 4.61963C13.0529 4.45487 13.3417 4.48553 13.5015 4.68835C14.342 5.74949 14.7463 6.87635 14.7431 8.00303C14.7396 9.15633 14.3098 10.292 13.484 11.3404ZM10.9604 9.732V17.5256C10.9604 17.7876 10.7543 18.0001 10.5001 18.0001C10.246 18.0001 10.0401 17.7876 10.0401 17.5256V9.73165C9.74817 9.64848 9.48737 9.48848 9.27922 9.27403C8.96664 8.95157 8.77318 8.50629 8.77318 8.01449C8.77318 7.52269 8.96664 7.0774 9.27922 6.75512C9.59196 6.43283 10.0238 6.23336 10.5006 6.23336C10.9778 6.23336 11.4095 6.43283 11.7222 6.75512C12.0348 7.0774 12.2283 7.52269 12.2283 8.01449C12.2283 8.50629 12.0348 8.95157 11.7222 9.27403C11.5137 9.48883 11.2526 9.64901 10.9604 9.732Z" fill="#7C7D7E"/>
</svg>
