<svg width="21" height="21" viewBox="0 0 21 21" fill="none" xmlns="http://www.w3.org/2000/svg">
<path d="M8.93191 0.643555C11.1589 0.643555 13.1748 1.52376 14.6343 2.94694C16.0937 4.37012 16.9963 6.3361 16.9963 8.50781C16.9963 10.5926 16.1644 12.4875 14.807 13.8949C14.8317 13.9126 14.8556 13.9323 14.8781 13.9541L20.6839 19.6079C20.9271 19.8438 20.9284 20.2275 20.6863 20.4648C20.4444 20.7022 20.0509 20.7031 19.8077 20.4673L14.0018 14.8135C13.965 14.7777 13.9338 14.7386 13.9079 14.6971C12.5371 15.7464 10.8094 16.3722 8.93175 16.3722C6.70472 16.3722 4.6885 15.492 3.22907 14.0688C1.76981 12.6457 0.867188 10.6795 0.867188 8.50781C0.867188 6.3361 1.76981 4.37012 3.22924 2.94694C4.68866 1.52393 6.70489 0.643555 8.93191 0.643555ZM13.7326 3.82634C12.504 2.62826 10.8068 1.88721 8.93191 1.88721C7.05706 1.88721 5.35963 2.62826 4.13103 3.82634C2.90244 5.02441 2.14252 6.67953 2.14252 8.50781C2.14252 10.3361 2.90244 11.9914 4.13103 13.1895C5.35946 14.3875 7.05689 15.1286 8.93191 15.1286C10.8068 15.1286 12.504 14.3875 13.7326 13.1895C14.9612 11.9915 15.7211 10.3363 15.7211 8.50781C15.7211 6.67953 14.9612 5.02441 13.7326 3.82634Z" fill="#A4A4A4"/>
</svg>
